<?xml version="1.0" standalone="yes"?>
<svg xmlns="http://www.w3.org/2000/svg" width="216" height="216">
<path style="fill:#fdfefc; stroke:none;" d="M0 0L0 216L216 216L216 0L0 0z"/>
<path style="fill:#f3da0c; stroke:none;" d="M65 34C63.286 38.7171 60.2143 43.0776 59.1844 48C53.9655 72.9429 62.5327 100.696 88 110.316C93.8494 112.525 99.748 113.732 106 114C105.207 108.041 101.715 103.188 99.25 97.8302C92.5676 83.3053 84.5125 69.4687 77.7824 55C74.6827 48.336 71.755 37.5096 65 34M148 34C138.592 48.3862 132.095 65.5468 124.539 80.9853C119.037 92.2276 111.492 102.873 108 115C119.423 112.186 130.559 110.229 139.999 102.532C154.15 90.996 159.468 71.5853 157.116 54C156.139 46.7003 153.936 38.7806 148 34M104 46.6389C99.4632 47.9265 94.2932 51.4415 92.6034 56.0008C88.3939 67.3584 98.3285 82.0226 111 78.49C118.211 76.4797 124.108 69.7078 123.78 62C123.383 52.6619 113.333 43.9901 104 46.6389M57 49L58 50L57 49z"/>
<path style="fill:#759061; stroke:none;" d="M58 49C54.9204 56.6548 56.9793 67.9233 58 76C59.8226 70.9185 57.7986 63.5364 58.0394 58C58.1762 54.8537 59.0693 51.9813 58 49M156 49L156 51L158 51C157.455 49.3649 157.635 49.5451 156 49z"/>
<path style="fill:#3a6232; stroke:none;" d="M157 51C157.247 62.9904 158.203 74.4686 153.444 86C146.84 101.999 126.684 113.656 110 114C113.699 115.552 118.017 115 122 115L142 115L142 128L94 128C89.0659 128 79.5653 129.806 75.3179 126.972C71.882 124.679 73 118.538 73 115L105 115C97.6118 111.871 89.3957 111.245 82.0394 107.215C61.1014 95.7459 57 74.8241 57 53C50.9139 60.3382 47.5187 70.4363 43.4483 79C37.7395 91.0108 30.8807 102.614 26 115L60 115L60 128L25 128L25 138L190 138L190 128L165 128C162.114 127.999 157.858 128.652 155.603 126.397C152.492 123.285 153.765 116.497 158.059 115.318C167.137 112.825 179.583 115 189 115C184.02 100.631 175.266 86.5684 168.359 73C164.686 65.7845 162.198 57.2729 157 51M57 52L58 53L57 52z"/>
<path style="fill:#759061; stroke:none;" d="M158 52L159 53L158 52M55 54L56 55L55 54M159 54L160 55L159 54M54 56L55 57L54 56M160 56L161 57L160 56M53 58L54 59L53 58M161 58L162 59L161 58M52 60L53 61L52 60M162 60L163 61L162 60M163 62L164 63L163 62M50 64L51 65L50 64M164 64L165 65L164 64M165.333 66.6667C165.278 66.7222 165.222 67.7778 165.667 67.3333C165.722 67.2778 165.778 66.2223 165.333 66.6667M48 68L49 69L48 68M47 70L48 71L47 70M167 71L168 72L167 71M46 72L47 73L46 72M156.333 73.6667C156.278 73.7222 156.222 74.7778 156.667 74.3333C156.722 74.2778 156.778 73.2222 156.333 73.6667M168 73L169 74L168 73M45 74L46 75L45 74M169 75L170 76L169 75M44 76L45 77L44 76M155 77L155 80C155.696 78.4463 155.696 78.5537 155 77M43 79L44 80L43 79M154.333 80.6667C154.278 80.7222 154.222 81.7778 154.667 81.3333C154.722 81.2777 154.778 80.2222 154.333 80.6667M172 81L173 82L172 81M41 83L42 84L41 83M173 83L174 84L173 83M61.3333 84.6667C61.2777 84.7223 61.2222 85.7777 61.6667 85.3333C61.7222 85.2778 61.7778 84.2222 61.3333 84.6667M153 84L151 90C153.074 87.9827 153.912 86.8142 153 84M62 86L62 89C62.6961 87.4463 62.6961 87.5537 62 86M175 87L176 88L175 87M176 89L177 90L176 89M37 91L38 92L37 91M177 91L178 92L177 91M65 92C65.6836 93.58 65.8048 93.7772 67 95C66.3164 93.42 66.1952 93.2228 65 92M148 93L149 94L148 93M178.333 93.6667C178.278 93.7223 178.222 94.7777 178.667 94.3333C178.722 94.2778 178.778 93.2222 178.333 93.6667M69 97L70 98L69 97M180 97L181 98L180 97M33 99L34 100L33 99M143 99L144 100L143 99M181 99L182 100L181 99M31 103L32 104L31 103M138.667 103.333C138.222 103.778 139.278 103.722 139.333 103.667C139.778 103.222 138.722 103.278 138.667 103.333M183 103L184 104L183 103M30 105L31 106L30 105M78.6667 105.333C78.2222 105.778 79.2778 105.722 79.3333 105.667C79.7778 105.222 78.7222 105.278 78.6667 105.333M184 105L185 106L184 105M134 106L135 107L134 106M29 107L30 108L29 107M185 107L186 108L185 107M128 109C129.809 109.574 130.069 109.465 132 109C130.341 108.594 129.758 108.691 128 109M125.667 110.333C125.222 110.778 126.278 110.722 126.333 110.667C126.778 110.222 125.722 110.278 125.667 110.333M27 111L28 112L27 111M122.667 111.333C122.222 111.778 123.278 111.722 123.333 111.667C123.778 111.222 122.722 111.278 122.667 111.333M120.667 112.333C120.222 112.778 121.278 112.722 121.333 112.667C121.778 112.222 120.722 112.278 120.667 112.333M26 113L27 114L26 113M97 113C98.506 113.683 99.3148 113.826 101 114C99.4939 113.317 98.6852 113.174 97 113M115.667 113.333C115.222 113.778 116.278 113.722 116.333 113.667C116.778 113.222 115.722 113.278 115.667 113.333M188 113L189 114L188 113M73 115C79.1939 117.599 88.3141 116 95 116L142 116C135.804 113.4 126.687 115.003 120 115L73 115M26 115C29.6987 116.552 34.0172 116 38 116L60 116C56.3013 114.448 51.9828 115 48 115L26 115M155 115C158.699 116.552 163.017 116 167 116L189 116C185.301 114.448 180.983 115 177 115L155 115z"/>
<path style="fill:#f3da0c; stroke:none;" d="M73 116L73 127C74.4309 123.59 74.4309 119.41 73 116z"/>
<path style="fill:#fdfefc; stroke:none;" d="M74 116L74 127L142 127L142 116L74 116z"/>
<path style="fill:#759061; stroke:none;" d="M154 116L154 127C155.431 123.59 155.431 119.41 154 116M24 127L24 139L190 139C185.28 137.019 179.08 138 174 138L141 138L25 138L25 128L60 128C56.0414 126.339 51.2603 127 47 127L24 127M74 127C79.951 129.497 88.5798 128 95 128L142 128C136.049 125.503 127.42 127 121 127L74 127M155 127C158.699 128.552 163.017 128 167 128L190 128C186.301 126.448 181.983 127 178 127L155 127M85 143L86 144L85 143M25 146L28 145C26.2337 144.599 26.4426 144.711 25 146z"/>
<path style="fill:#3a6232; stroke:none;" d="M32 154L32 152C26.5481 151.128 25.8556 146.465 32 147C27.8174 141.289 20.8526 149.126 27.1235 152.972C28.6383 153.901 30.302 153.872 32 154z"/>
<path style="fill:#759061; stroke:none;" d="M30 144C31.1394 145.015 31.6116 145.309 33 146C32.0198 144.217 32.0924 144.406 30 144M35 144L34 146C35.2627 145.029 35.3919 145.306 35 144z"/>
<path style="fill:#3a6232; stroke:none;" d="M36.2253 145.072C30.8577 148.018 35.6032 155.925 40.6813 152.802C45.2242 150.008 41.0574 142.42 36.2253 145.072z"/>
<path style="fill:#759061; stroke:none;" d="M40 144L41 145L40 144M46 144C44.8137 145.186 44.4721 145.584 44 147C45.5481 145.738 45.808 145.806 46 144z"/>
<path style="fill:#3a6232; stroke:none;" d="M47.1481 145.072C41.8208 147.925 46.7835 155.979 51.6821 152.953C56.2722 150.118 52.0991 142.42 47.1481 145.072z"/>
<path style="fill:#f3da0c; stroke:none;" d="M51.6667 144.333C51.2222 144.778 52.2778 144.722 52.3333 144.667C52.7778 144.222 51.7222 144.278 51.6667 144.333z"/>
<path style="fill:#759061; stroke:none;" d="M55 144C54.7177 147.382 54.8028 150.617 55 154C56.3457 150.793 56.3457 147.207 55 144z"/>
<path style="fill:#3a6232; stroke:none;" d="M56 144L56 154C57.7628 151.439 59.4142 149.763 62 148L62 154L67 154C66.0198 152.217 66.0924 152.406 64 152L64 149L67 149L64 147C65.7425 145.889 66.1193 145.73 67 144C64.0066 144.064 62.6544 143.946 62 147C59.9651 145.212 58.6529 144.537 56 144z"/>
<path style="fill:#759061; stroke:none;" d="M59 144L60 145L59 144M67 144L68 148L64 149C65.5061 149.683 66.3148 149.826 68 150L67 154C69.8019 151.552 69.8019 146.448 67 144z"/>
<path style="fill:#3a6232; stroke:none;" d="M69 144L69 154C69.683 152.494 69.8259 151.685 70 150C72.7166 151.857 74.7229 153.463 78 154L78 151C80.5596 151.667 82.6247 152.853 85 154C83.9306 150.288 82.4685 146.98 80 144L76 152C74.8137 150.814 74.4162 150.472 73 150C73.9573 148.483 74.3872 147.661 75 146C72.9045 144.957 71.3013 144.397 69 144z"/>
<path style="fill:#759061; stroke:none;" d="M72 144L73 145L72 144M79 144L80 145L79 144M81.3333 144.667C81.2778 144.722 81.2222 145.778 81.6667 145.333C81.7222 145.278 81.7778 144.222 81.3333 144.667z"/>
<path style="fill:#3a6232; stroke:none;" d="M85 144C85.9802 145.783 85.9076 145.594 88 146L88 154L90 154C90 149.447 91.165 147.76 93 144L85 144z"/>
<path style="fill:#759061; stroke:none;" d="M93 144L93 154C94.3457 150.793 94.3457 147.207 93 144z"/>
<path style="fill:#3a6232; stroke:none;" d="M94 144L94 154L96 154L96 146C97.3382 148.66 98.3788 151.091 99 154L101 154L104 144C102.032 145.464 101.648 146.606 101 149L99 149L98 144L94 144z"/>
<path style="fill:#759061; stroke:none;" d="M104 144L105 145L104 144M107 144L108 145L107 144z"/>
<path style="fill:#3a6232; stroke:none;" d="M108 144C106.28 147.23 104.966 150.468 104 154C105.783 153.02 105.594 153.092 106 151C108.56 151.667 110.625 152.853 113 154C111.931 150.288 110.469 146.98 108 144z"/>
<path style="fill:#759061; stroke:none;" d="M109.333 144.667C109.278 144.722 109.222 145.778 109.667 145.333C109.722 145.278 109.778 144.222 109.333 144.667M117 144L117 154C118.346 150.793 118.346 147.207 117 144z"/>
<path style="fill:#3a6232; stroke:none;" d="M118 144L118 154C127.364 153.483 127.074 145.014 118 144z"/>
<path style="fill:#759061; stroke:none;" d="M122.667 144.333C122.222 144.778 123.278 144.722 123.333 144.667C123.778 144.222 122.722 144.278 122.667 144.333M127 144L127 154C128.346 150.793 128.346 147.207 127 144z"/>
<path style="fill:#3a6232; stroke:none;" d="M128 144L128 154L133 154L133 152L129 152C129.899 149.876 129.876 149.899 132 149L129 146L133 146L133 144L128 144M137 144C137.98 145.783 137.908 145.594 140 146L140 154L142 154C142 149.447 143.165 147.76 145 144L137 144z"/>
<path style="fill:#759061; stroke:none;" d="M145 144L145 154C146.346 150.793 146.346 147.207 145 144z"/>
<path style="fill:#3a6232; stroke:none;" d="M146 144L146 154C146.683 152.494 146.826 151.685 147 150C148.753 151.33 149.67 152.247 151 154C152.893 153.497 155.123 152.09 157.082 152.09C158.881 152.089 160.439 153.331 162.17 153.691C164.991 154.279 168.122 153.829 171 154C173.124 150.997 175.053 152.621 178 154C177.004 150.515 175.55 147.276 174 144C171.723 146.072 170.504 148.308 169 151C167.761 146.532 166.825 144.555 162 144L162 153C160.444 150.081 159.197 147.085 158 144L156 144L153 152C150.484 148.327 150.867 145.059 146 144z"/>
<path style="fill:#759061; stroke:none;" d="M149 144L150 145L149 144M166 144L167 145L166 144M172 144L173 145L172 144M178 144L178 155C179.431 151.59 179.431 147.41 178 144z"/>
<path style="fill:#3a6232; stroke:none;" d="M179 144C178.999 148.664 179.382 152.457 176 156C177.479 156.986 177.203 157 179 157C180.182 154.57 180.73 152.687 181 150C181.639 150.707 182.508 152.025 183.45 152.541C193.825 158.224 190.936 138.474 183.029 146.278C182.328 146.97 182.262 148.17 182 149C181.438 147.199 181.176 145.878 181 144L179 144z"/>
<path style="fill:#759061; stroke:none;" d="M184 144L185 145L184 144M188 144L189 145L188 144M42.3333 145.667C42.2778 145.722 42.2222 146.778 42.6667 146.333C42.7222 146.278 42.7778 145.222 42.3333 145.667z"/>
<path style="fill:#f3da0c; stroke:none;" d="M61.3333 145.667C61.2778 145.722 61.2222 146.778 61.6667 146.333C61.7222 146.278 61.7778 145.222 61.3333 145.667z"/>
<path style="fill:#759061; stroke:none;" d="M124 145L125 146L124 145z"/>
<path style="fill:#f3da0c; stroke:none;" d="M155 145L156 146L155 145z"/>
<path style="fill:#759061; stroke:none;" d="M158 145L159 146L158 145M36 146L35 150C35.9536 148.419 36.1973 147.811 36 146z"/>
<path style="fill:#fdfefc; stroke:none;" d="M35 151C43.4166 152.916 38.7289 142.23 35 151z"/>
<path style="fill:#759061; stroke:none;" d="M40 146L41 147L40 146M47 146L48 147L47 146z"/>
<path style="fill:#fdfefc; stroke:none;" d="M48.3032 147.171C45.57 148.663 47.9095 152.808 50.4213 150.918C52.4602 149.384 50.7499 145.836 48.3032 147.171z"/>
<path style="fill:#759061; stroke:none;" d="M51 146L52 147L51 146M53 146L54 147L53 146z"/>
<path style="fill:#fdfefc; stroke:none;" d="M58 146L58 148C59.6351 147.455 59.4549 147.635 60 146L58 146M64 146L64 148L68 148L68 146L64 146z"/>
<path style="fill:#759061; stroke:none;" d="M70.3333 146.667C70.2778 146.722 70.2222 147.778 70.6667 147.333C70.7222 147.278 70.7778 146.222 70.3333 146.667z"/>
<path style="fill:#fdfefc; stroke:none;" d="M71 146L71 148C72.6352 147.455 72.4549 147.635 73 146L71 146z"/>
<path style="fill:#759061; stroke:none;" d="M78 146L79 147L78 146M96 146L97 147L96 146M98 146L99 147L98 146M101 146L102 147L101 146M106 146L107 147L106 146M119 146L119 152C119.951 149.715 119.951 148.285 119 146z"/>
<path style="fill:#fdfefc; stroke:none;" d="M120 146L120 152C124.302 150.581 124.035 147.625 120 146z"/>
<path style="fill:#759061; stroke:none;" d="M122 146L123 147L122 146M125 146L126 147L125 146z"/>
<path style="fill:#f3da0c; stroke:none;" d="M139 146L139 154C140.161 151.23 140.161 148.77 139 146z"/>
<path style="fill:#759061; stroke:none;" d="M147.333 146.667C147.278 146.722 147.222 147.778 147.667 147.333C147.722 147.278 147.778 146.222 147.333 146.667z"/>
<path style="fill:#fdfefc; stroke:none;" d="M148.333 146.667C148.278 146.722 148.222 147.778 148.667 147.333C148.722 147.278 148.778 146.222 148.333 146.667M164 146L164 148L166 148L166 146L164 146z"/>
<path style="fill:#759061; stroke:none;" d="M166 146L167 147L166 146M168 146L169 147L168 146z"/>
<path style="fill:#fdfefc; stroke:none;" d="M185.564 147.171C183.573 148.471 185.241 152.261 187.436 150.829C189.427 149.529 187.759 145.739 185.564 147.171z"/>
<path style="fill:#759061; stroke:none;" d="M33 147L34 148L33 147z"/>
<path style="fill:#f3da0c; stroke:none;" d="M46 147L47 148L46 147z"/>
<path style="fill:#759061; stroke:none;" d="M80 147L81 148L80 147M82 147L83 148L82 147M108 147L109 148L108 147M110 147L111 148L110 147M173 147L173 150C173.696 148.446 173.696 148.554 173 147M175 147L176 148L175 147M181.333 147.667C181.278 147.722 181.222 148.778 181.667 148.333C181.722 148.278 181.778 147.222 181.333 147.667M183 147L183 151C183.71 149.241 183.71 148.759 183 147M189 147L189 151C189.71 149.241 189.71 148.759 189 147M191 147L191 151C191.71 149.241 191.71 148.759 191 147z"/>
<path style="fill:#f3da0c; stroke:none;" d="M41 148L42 149L41 148z"/>
<path style="fill:#759061; stroke:none;" d="M52.3333 148.667C52.2778 148.722 52.2222 149.778 52.6667 149.333C52.7222 149.278 52.7778 148.222 52.3333 148.667z"/>
<path style="fill:#fdfefc; stroke:none;" d="M80.3333 148.667C80.2778 148.722 80.2222 149.778 80.6667 149.333C80.7222 149.278 80.7778 148.222 80.3333 148.667M108 148L109 149L108 148z"/>
<path style="fill:#759061; stroke:none;" d="M132 148C130.521 148.986 130.797 149 129 149C130.809 149.574 131.069 149.465 133 149L132 148z"/>
<path style="fill:#f3da0c; stroke:none;" d="M154 148L155 149L154 148z"/>
<path style="fill:#fdfefc; stroke:none;" d="M156.667 148.333C156.222 148.778 157.278 148.722 157.333 148.667C157.778 148.222 156.722 148.278 156.667 148.333z"/>
<path style="fill:#f3da0c; stroke:none;" d="M170 148L171 149L170 148z"/>
<path style="fill:#759061; stroke:none;" d="M41 149L42 150L41 149M59 149L60 150L59 149M73 149L74 150L73 149M77 149L78 150L77 149M79 149L80 150L79 149M83 149L84 150L83 149M105 149L106 150L105 149M107.667 149.333C107.222 149.778 108.278 149.722 108.333 149.667C108.778 149.222 107.722 149.278 107.667 149.333M111 149L112 150L111 149z"/>
<path style="fill:#f3da0c; stroke:none;" d="M132 149L133 150L132 149z"/>
<path style="fill:#759061; stroke:none;" d="M150 149L151 150L150 149M156.667 149.333C156.222 149.778 157.278 149.722 157.333 149.667C157.778 149.222 156.722 149.278 156.667 149.333M164.667 149.333C164.222 149.778 165.278 149.722 165.333 149.667C165.778 149.222 164.722 149.278 164.667 149.333M168 149L169 150L168 149M176 149L177 150L176 149M44 150L45 151L44 150M46 150L47 151L46 150M57 150L57 154C57.7102 152.241 57.7102 151.759 57 150z"/>
<path style="fill:#fdfefc; stroke:none;" d="M64 150L64 152L68 152L68 150L64 150z"/>
<path style="fill:#759061; stroke:none;" d="M70 150L70 154C70.7102 152.241 70.7102 151.759 70 150M98.3333 150.667C98.2778 150.722 98.2222 151.778 98.6667 151.333C98.7222 151.278 98.7778 150.222 98.3333 150.667M101.333 150.667C101.278 150.722 101.222 151.778 101.667 151.333C101.722 151.278 101.778 150.222 101.333 150.667M147 150L147 154C147.71 152.24 147.71 151.759 147 150z"/>
<path style="fill:#f3da0c; stroke:none;" d="M148 150L149 151L148 150z"/>
<path style="fill:#759061; stroke:none;" d="M153 150L154 151L153 150M160 150L161 151L160 150z"/>
<path style="fill:#fdfefc; stroke:none;" d="M164 150L164 152L167 152L167 150L164 150z"/>
<path style="fill:#759061; stroke:none;" d="M181 150L182 151L181 150M24 151L25 152L24 151M31 151C31.5451 152.635 31.3648 152.455 33 153L33 151L31 151z"/>
<path style="fill:#f3da0c; stroke:none;" d="M44 151L45 152L44 151z"/>
<path style="fill:#759061; stroke:none;" d="M78 151L79 152L78 151M104 151L105 152L104 151M106 151L107 152L106 151M112 151L113 152L112 151M155 151L156 152L155 151M184 151L185 152L184 151M188 151L189 152L188 151M25 152L26 153L25 152M73 152L74 153L73 152z"/>
<path style="fill:#f3da0c; stroke:none;" d="M103.333 152.667C103.278 152.722 103.222 153.778 103.667 153.333C103.722 153.278 103.778 152.222 103.333 152.667z"/>
<path style="fill:#759061; stroke:none;" d="M150.333 152.667C150.278 152.722 150.222 153.778 150.667 153.333C150.722 153.278 150.778 152.222 150.333 152.667M159 152L160 153L159 152M182 152L183 153L182 152M190 152L191 153L190 152M26 153L27 154L26 153M40 153L41 154L40 153M46 153L47 154L46 153M168 153L169 154L168 153M188 153L189 154L188 153M180 154L181 155L180 154M3 159C3.00308 162.987 2.40242 166.668 6 169C4.19025 165.746 4.39202 162.308 3 159z"/>
<path style="fill:#3a6232; stroke:none;" d="M4 159C4.00177 161.289 3.5162 164.457 4.60339 166.562C5.82356 168.925 9.17645 168.925 10.3966 166.562C11.4838 164.457 10.9982 161.289 11 159C9.90228 161.613 10.0072 164.165 10 167L6 167L6 159L4 159z"/>
<path style="fill:#759061; stroke:none;" d="M11 159L11 168C12.2561 165.006 12.2561 161.994 11 159z"/>
<path style="fill:#3a6232; stroke:none;" d="M13 159L13 169L15 169L15 163C17.2391 165.363 19.1352 167.478 22 169L22 159L20 159L20 165C17.7481 162.794 15.5763 160.807 13 159z"/>
<path style="fill:#759061; stroke:none;" d="M14 159L15 160L14 159M22 159L23 160L22 159z"/>
<path style="fill:#3a6232; stroke:none;" d="M23 159L23 169L25 169L25 159L23 159z"/>
<path style="fill:#f3da0c; stroke:none;" d="M28 159L29 160L28 159z"/>
<path style="fill:#3a6232; stroke:none;" d="M29.1512 160.072C23.778 162.92 28.6566 170.723 33.7685 167.802C39.0211 164.8 34.1534 157.421 29.1512 160.072z"/>
<path style="fill:#759061; stroke:none;" d="M33 159L34 160L33 159M37 159L38 160L37 159z"/>
<path style="fill:#3a6232; stroke:none;" d="M38 159C37.6343 162.326 37.9741 165.643 38 169C38.8742 166.948 38.9528 165.253 39 163C41.6846 165.368 43.5883 167.732 47 169L47 159L45 159L45 165L38 159z"/>
<path style="fill:#759061; stroke:none;" d="M44 159L44 164C44.8299 161.97 44.8299 161.03 44 159z"/>
<path style="fill:#3a6232; stroke:none;" d="M51 159L51 169L53 169L53 165C59.9478 163.837 56.0844 159.388 51 159M61 159L57 169C62.0924 166.782 63.8078 168.231 69 169L69 165C71.0558 164.512 72.1441 164.048 74 163L74 169L80 169L80 167L75 167L75 165L79 165L79 163L75 163L75 161L79 161L79 159C76.5975 159.168 75.5398 159.197 74 161C71.6017 159.973 69.5842 159.322 67 159L67 168C65.0155 164.885 63.6242 161.616 61 159z"/>
<path style="fill:#759061; stroke:none;" d="M62 159L63 160L62 159M71 159L72 160L71 159M73 159L72 161L74 161C74 159.147 74.2997 159.65 73 159z"/>
<path style="fill:#f3da0c; stroke:none;" d="M80 159L80 169C81.3457 165.793 81.3457 162.207 80 159z"/>
<path style="fill:#3a6232; stroke:none;" d="M81 159L81 169L86 169L86 167L82 167C81.9928 164.165 82.0977 161.613 81 159M87 159L87 169L93 169L93 167L88 167L88 165L92 165L92 163L88 163L88 161L93 161L93 159L87 159z"/>
<path style="fill:#759061; stroke:none;" d="M93 159L93 169C94.3457 165.793 94.3457 162.207 93 159z"/>
<path style="fill:#3a6232; stroke:none;" d="M94 159L94 169L96 169L96 165C100.189 169.602 104.607 166.48 110 169C108.534 165.222 107.464 161.289 104 159L101 168C98.4665 163.993 99.2432 160.141 94 159z"/>
<path style="fill:#759061; stroke:none;" d="M97 159L98 160L97 159z"/>
<path style="fill:#3a6232; stroke:none;" d="M114 159L114 169L116 169L116 165C118.092 164.594 118.02 164.783 119 163C119.644 165.106 119.906 166.795 120 169C124.896 168.983 130.205 165.739 134 169C134.706 165.589 132.908 162.327 132 159C127.87 161.725 127.471 166.13 122 167L122 159C120.604 159.661 120.186 159.964 119 161C117.211 159.578 116.294 159.303 114 159z"/>
<path style="fill:#759061; stroke:none;" d="M118 159L119 160L118 159M122 159L122 167C123.161 164.23 123.161 161.77 122 159z"/>
<path style="fill:#3a6232; stroke:none;" d="M135 159C135.98 160.783 135.908 160.594 138 161L138 169L140 169C140 164.447 141.165 162.76 143 159L135 159M144 159L144 169L150 169L150 167L146 167L149 164L146 161L150 161L150 159L144 159z"/>
<path style="fill:#759061; stroke:none;" d="M150 159C149.637 162.436 149.637 165.564 150 169C151.346 165.793 151.346 162.207 150 159z"/>
<path style="fill:#3a6232; stroke:none;" d="M151 159L151 169L153 169L153 164C155.279 166.13 157.181 167.701 160 169L160 159L158 159L158 166C155.759 163.452 153.693 161.057 151 159z"/>
<path style="fill:#759061; stroke:none;" d="M157 159L157 163C157.71 161.241 157.71 160.759 157 159z"/>
<path style="fill:#3a6232; stroke:none;" d="M164 167L161 167L161 169C166.978 168.006 165.375 164.498 162 161L166 162C164.91 160.354 161.795 158.36 161.617 162.059C161.528 163.897 163.048 165.584 164 167M167 159L167 169L173 169L173 167L169 167L169 165L173 165L173 163L169 163L169 161L173 161L173 159L167 159M177 159L177 169L183 169L183 167L179 167L179 159L177 159z"/>
<path style="fill:#759061; stroke:none;" d="M179 159L180 160L179 159z"/>
<path style="fill:#3a6232; stroke:none;" d="M183 159C183.98 160.783 183.908 160.594 186 161L186 169L188 169C188 164.447 189.165 162.76 191 159L183 159z"/>
<path style="fill:#759061; stroke:none;" d="M191 159L191 169C192.346 165.793 192.346 162.207 191 159z"/>
<path style="fill:#3a6232; stroke:none;" d="M192 159L192 169C201.955 168.453 201.955 159.547 192 159z"/>
<path style="fill:#759061; stroke:none;" d="M204 159L205 160L204 159z"/>
<path style="fill:#3a6232; stroke:none;" d="M205 159C203 162.246 201.802 165.275 201 169L207 166C208.514 168.36 209.954 169.261 212 167C210.203 167 210.479 167.014 209 168C208.375 164.494 207.27 161.752 205 159z"/>
<path style="fill:#759061; stroke:none;" d="M15 160L16 161L15 160z"/>
<path style="fill:#fdfefc; stroke:none;" d="M22 160L23 161L22 160z"/>
<path style="fill:#759061; stroke:none;" d="M27 160L28 161L27 160M57 160L58 161L57 160M60.3333 160.667C60.2778 160.722 60.2222 161.778 60.6667 161.333C60.7222 161.278 60.7778 160.222 60.3333 160.667M99 160L99 163C99.6961 161.446 99.6961 161.554 99 160M103.333 160.667C103.278 160.722 103.222 161.778 103.667 161.333C103.722 161.278 103.778 160.222 103.333 160.667M106 160L107 161L106 160M119 160L120 161L119 160z"/>
<path style="fill:#f3da0c; stroke:none;" d="M129 160L130 161L129 160z"/>
<path style="fill:#759061; stroke:none;" d="M132.333 160.667C132.278 160.722 132.222 161.778 132.667 161.333C132.722 161.278 132.778 160.222 132.333 160.667z"/>
<path style="fill:#f3da0c; stroke:none;" d="M199 160L200 161L199 160z"/>
<path style="fill:#759061; stroke:none;" d="M206 160L207 161L206 160M16 161L17 162L16 161M22 161L23 162L22 161M26 161L27 162L26 161M29 161L28 163C29.2627 162.029 29.3919 162.306 29 161z"/>
<path style="fill:#fdfefc; stroke:none;" d="M30.3179 162.171C27.8915 163.55 30.0836 167.23 32.3974 165.829C34.6004 164.495 32.6775 160.831 30.3179 162.171z"/>
<path style="fill:#759061; stroke:none;" d="M37 161L37 169C38.1614 166.23 38.1614 163.77 37 161z"/>
<path style="fill:#fdfefc; stroke:none;" d="M53 161L53 163L55 163L55 161L53 161z"/>
<path style="fill:#759061; stroke:none;" d="M55.3333 161.667C55.2778 161.722 55.2222 162.778 55.6667 162.333C55.7222 162.278 55.7778 161.222 55.3333 161.667M63 161L64 162L63 161z"/>
<path style="fill:#fdfefc; stroke:none;" d="M69 161L69 163L71 163L71 161L69 161z"/>
<path style="fill:#759061; stroke:none;" d="M75.3333 161.667C75.2778 161.722 75.2222 162.778 75.6667 162.333C75.7222 162.278 75.7778 161.222 75.3333 161.667M88.3333 161.667C88.2778 161.722 88.2222 162.778 88.6667 162.333C88.7222 162.278 88.7778 161.222 88.3333 161.667z"/>
<path style="fill:#fdfefc; stroke:none;" d="M89 161C89.8807 162.73 90.2575 162.889 92 164C90.2575 165.111 89.8807 165.27 89 167L93 167L93 161L89 161M96.3333 161.667C96.2778 161.722 96.2222 162.778 96.6667 162.333C96.7222 162.278 96.7778 161.222 96.3333 161.667M116 161L116 163L118 163L118 161L116 161z"/>
<path style="fill:#759061; stroke:none;" d="M140 161L140 169C141.161 166.23 141.161 163.77 140 161z"/>
<path style="fill:#fdfefc; stroke:none;" d="M146 161L146 163L150 163L150 161L146 161z"/>
<path style="fill:#759061; stroke:none;" d="M160.333 161.667C160.278 161.722 160.222 162.778 160.667 162.333C160.722 162.278 160.778 161.222 160.333 161.667M179.333 161.667C179.278 161.722 179.222 162.778 179.667 162.333C179.722 162.278 179.778 161.222 179.333 161.667z"/>
<path style="fill:#fdfefc; stroke:none;" d="M194 161L194 167C198.649 165.574 198.649 162.426 194 161z"/>
<path style="fill:#759061; stroke:none;" d="M197 161L198 162L197 161M203 161L204 162L203 161M107 162L108 163L107 162M128 162L129 163L128 162M130 162L131 163L130 162M198 162L199 163L198 162M207 162L208 163L207 162M15 163L16 164L15 163M34.3333 163.667C34.2778 163.722 34.2222 164.778 34.6667 164.333C34.7222 164.278 34.7778 163.222 34.3333 163.667M39 163L39 169C39.9509 167.059 40.4394 165.102 41 163L39 163M42 163L43 164L42 163M61 163L61 165L63 165L63 163L61 163M64 163L65 164L64 163M73 163L73 169C73.9511 166.715 73.9511 165.285 73 163M96 163L97 164L96 163M102 163L103 164L102 163M104.333 163.667C104.278 163.722 104.222 164.778 104.667 164.333C104.722 164.278 104.778 163.222 104.333 163.667z"/>
<path style="fill:#fdfefc; stroke:none;" d="M105.333 163.667C105.278 163.722 105.222 164.778 105.667 164.333C105.722 164.278 105.778 163.222 105.333 163.667z"/>
<path style="fill:#759061; stroke:none;" d="M119 163L120 164L119 163z"/>
<path style="fill:#fdfefc; stroke:none;" d="M130.333 163.667C130.278 163.722 130.222 164.778 130.667 164.333C130.722 164.278 130.778 163.222 130.333 163.667z"/>
<path style="fill:#759061; stroke:none;" d="M155 163L156 164L155 163z"/>
<path style="fill:#fdfefc; stroke:none;" d="M160 163C160.854 165.525 161.508 166.03 164 167C162.84 165.019 161.951 164.26 160 163z"/>
<path style="fill:#759061; stroke:none;" d="M204 163L204 165C205.635 164.455 205.455 164.635 206 163L204 163z"/>
<path style="fill:#f3da0c; stroke:none;" d="M16 164L17 165L16 164z"/>
<path style="fill:#759061; stroke:none;" d="M129 164L130 165L129 164M131 164L132 165L131 164M156 164L157 165L156 164M179 164L179 167C179.696 165.446 179.696 165.554 179 164z"/>
<path style="fill:#fdfefc; stroke:none;" d="M205 164L206 165L205 164z"/>
<path style="fill:#759061; stroke:none;" d="M17 165L18 166L17 165M26.3333 165.667C26.2778 165.722 26.2222 166.778 26.6667 166.333C26.7222 166.278 26.7778 165.222 26.3333 165.667M28 165L29 166L28 165z"/>
<path style="fill:#f3da0c; stroke:none;" d="M65 165L66 166L65 165z"/>
<path style="fill:#759061; stroke:none;" d="M75.3333 165.667C75.2778 165.722 75.2222 166.778 75.6667 166.333C75.7222 166.278 75.7778 165.222 75.3333 165.667M88.3333 165.667C88.2778 165.722 88.2222 166.778 88.6667 166.333C88.7222 166.278 88.7778 165.222 88.3333 165.667M96 165L97 166L96 165M101.333 165.667C101.278 165.722 101.222 166.778 101.667 166.333C101.722 166.278 101.778 165.222 101.333 165.667M108 165L109 166L108 165M127 165L128 166L127 165M134.333 165.667C134.278 165.722 134.222 166.778 134.667 166.333C134.722 166.278 134.778 165.222 134.333 165.667z"/>
<path style="fill:#fdfefc; stroke:none;" d="M146 165L146 167L150 167L150 165L146 165z"/>
<path style="fill:#759061; stroke:none;" d="M157 165L158 166L157 165M9 166L10 167L9 166M18 166L19 167L18 166M29 166L30 167L29 166M65 166L66 167L65 166M99 166L100 167L99 166M132 166L133 167L132 166M160 166L160 168C161.635 167.455 161.455 167.635 162 166L160 166M197 166L198 167L197 166M201 166L202 167L201 166M27 167L28 168L27 167M57 167L58 168L57 167M86.3333 167.667C86.2777 167.722 86.2222 168.778 86.6667 168.333C86.7222 168.278 86.7778 167.222 86.3333 167.667M100 167L101 168L100 167M107.333 167.667C107.278 167.722 107.222 168.778 107.667 168.333C107.722 168.278 107.778 167.222 107.333 167.667M109 167L110 168L109 167M128 167L129 168L128 167M135.333 167.667C135.278 167.722 135.222 168.778 135.667 168.333C135.722 168.278 135.778 167.222 135.333 167.667M156 167L157 168L156 167M209 167L210 168L209 167M9 168L10 169L9 168M44 168L45 169L44 168M64 168L65 169L64 168M98 168L99 169L98 168M102 168L103 169L102 168M133 168L134 169L133 168M157 168L158 169L157 168M197 168L198 169L197 168M200 168L201 169L200 168z"/>
</svg>
